<svg xmlns="http://www.w3.org/2000/svg" width="73" height="73" fill="none" viewBox="0 0 73 73">
  <circle cx="36.5" cy="36.5" r="36.5" fill="#7F57F1"/>
  <path fill="#fff" d="M14.072 32V20.64h2.608v4.496h4.752V20.64h2.624V32h-2.624v-4.576H16.68V32h-2.608Zm17.357.16c-1.195.01-2.219-.208-3.072-.656a4.656 4.656 0 0 1-1.968-1.936c-.459-.843-.688-1.856-.688-3.04s.24-2.23.72-3.136a5.328 5.328 0 0 1 2.064-2.144c.885-.512 1.936-.768 3.152-.768 1.077 0 2.021.235 2.832.704a4.87 4.87 0 0 1 1.888 1.968c.459.832.688 1.813.688 2.944 0 1.216-.24 2.277-.72 3.184a5.232 5.232 0 0 1-2 2.112c-.843.501-1.808.757-2.896.768Zm-.096-2.32c.907 0 1.643-.325 2.208-.976.565-.661.848-1.573.848-2.736 0-1.013-.256-1.819-.768-2.416-.512-.608-1.2-.912-2.064-.912-.63 0-1.184.155-1.664.464-.48.31-.859.741-1.136 1.296-.267.544-.4 1.184-.4 1.92 0 1.067.261 1.893.784 2.48.533.587 1.264.88 2.192.88ZM38.665 32l.4-11.36h2.192l3.984 8.08 3.952-8.08h2.192L51.689 32h-2.528l-.144-5.92L46.089 32h-1.904l-2.896-5.856L41.081 32h-2.416Zm22.949-9.104h-5.216v2.256h4.88v2.256h-4.88v2.336h5.376L61.614 32h-7.776V20.64h7.776v2.256ZM28.59 38.93h-9.78v4.23h9.15v4.23h-9.15v4.38h10.08l-.3 4.23H14.01V34.7h14.58v4.23ZM31.383 56V34.7h4.89v17.01h9.21l-.3 4.29h-13.8ZM61.24 38.93h-9.09v4.53h8.46v4.2h-8.46V56h-4.8V34.7h13.89v4.23Z"/>
</svg>
