<svg width="288" height="73" viewBox="0 0 288 73" fill="none" xmlns="http://www.w3.org/2000/svg">
<path d="M86.216 54V19.92H94.04V33.408H108.296V19.92H116.168V54H108.296V40.272H94.04V54H86.216ZM134.159 29.184C137.967 29.184 140.943 30.272 143.087 32.448C145.263 34.624 146.351 37.568 146.351 41.28C146.351 43.808 145.807 46.064 144.719 48.048C143.631 50.032 142.095 51.6 140.111 52.752C138.127 53.904 135.791 54.48 133.103 54.48C129.327 54.48 126.351 53.392 124.175 51.216C122.031 49.04 120.959 46.112 120.959 42.432C120.959 39.872 121.503 37.6 122.591 35.616C123.679 33.632 125.215 32.064 127.199 30.912C129.183 29.76 131.503 29.184 134.159 29.184ZM133.439 48.096C135.071 48.096 136.367 47.488 137.327 46.272C138.319 45.024 138.815 43.36 138.815 41.28C138.815 39.488 138.383 38.096 137.519 37.104C136.655 36.08 135.471 35.568 133.967 35.568C132.303 35.568 130.975 36.192 129.983 37.44C129.023 38.656 128.543 40.304 128.543 42.384C128.543 44.176 128.959 45.584 129.791 46.608C130.655 47.6 131.871 48.096 133.439 48.096ZM150.801 54V29.568H158.097L157.809 34.608C158.833 32.72 160.113 31.344 161.649 30.48C163.185 29.616 164.817 29.184 166.545 29.184C168.241 29.184 169.761 29.616 171.105 30.48C172.449 31.312 173.473 32.672 174.177 34.56C175.265 32.736 176.641 31.392 178.305 30.528C180.001 29.632 181.713 29.184 183.441 29.184C186.321 29.184 188.481 30.176 189.921 32.16C191.361 34.112 192.065 36.928 192.033 40.608L191.937 54H184.593L184.689 40.752C184.689 39.28 184.417 38.128 183.873 37.296C183.329 36.432 182.497 36 181.377 36C180.513 36 179.697 36.272 178.929 36.816C178.193 37.36 177.537 38.304 176.961 39.648C176.385 40.992 175.921 42.832 175.569 45.168C175.249 47.504 175.057 50.448 174.993 54H167.697V40.752C167.697 39.28 167.441 38.128 166.929 37.296C166.417 36.432 165.601 36 164.481 36C163.617 36 162.801 36.272 162.033 36.816C161.297 37.36 160.641 38.304 160.065 39.648C159.489 40.992 159.025 42.832 158.673 45.168C158.321 47.504 158.129 50.448 158.097 54H150.801ZM209.302 54.48C206.582 54.48 204.23 53.984 202.246 52.992C200.262 51.968 198.726 50.544 197.638 48.72C196.55 46.864 196.006 44.672 196.006 42.144C196.006 39.584 196.55 37.328 197.638 35.376C198.758 33.424 200.246 31.904 202.102 30.816C203.99 29.728 206.118 29.184 208.486 29.184C211.174 29.184 213.366 29.792 215.062 31.008C216.758 32.224 217.926 33.952 218.566 36.192C219.238 38.4 219.382 40.976 218.998 43.92H203.494C203.686 45.136 204.326 46.16 205.414 46.992C206.502 47.792 207.99 48.192 209.878 48.192C210.742 48.192 211.654 48.016 212.614 47.664C213.574 47.28 214.39 46.72 215.062 45.984L219.142 50.304C218.086 51.584 216.774 52.608 215.206 53.376C213.67 54.112 211.702 54.48 209.302 54.48ZM208.63 34.512C207.35 34.512 206.262 34.896 205.366 35.664C204.502 36.432 203.926 37.504 203.638 38.88H212.806C212.838 37.376 212.47 36.272 211.702 35.568C210.966 34.864 209.942 34.512 208.63 34.512ZM247.216 26.688H231.568V33.456H246.208V40.224H231.568V47.232H247.696L247.216 54H223.888V19.92H247.216V26.688ZM258.981 54.48C256.517 54.48 254.613 53.808 253.269 52.464C251.957 51.088 251.301 49.104 251.301 46.512V18.48H258.645V45.984C258.645 47.456 259.333 48.192 260.709 48.192C261.445 48.192 262.069 48.016 262.581 47.664L264.357 52.896C263.813 53.344 263.061 53.712 262.101 54C261.141 54.32 260.101 54.48 258.981 54.48ZM267.457 54V35.664H262.945V29.568H267.457V28.8C267.457 26.592 267.937 24.688 268.897 23.088C269.857 21.456 271.153 20.208 272.785 19.344C274.449 18.448 276.321 18 278.401 18C280.865 18 282.865 18.608 284.401 19.824C285.937 21.04 286.881 22.912 287.233 25.44L280.945 26.208C280.849 25.568 280.561 25.072 280.081 24.72C279.601 24.368 278.993 24.192 278.257 24.192C277.137 24.192 276.257 24.544 275.617 25.248C275.009 25.92 274.705 26.896 274.705 28.176V29.568H281.281V35.664H274.801V54H267.457Z" fill="#7F57F1"/>
<circle cx="36.5" cy="36.5" r="36.5" fill="#7F57F1"/>
<path d="M14.072 32V20.64H16.68V25.136H21.432V20.64H24.056V32H21.432V27.424H16.68V32H14.072ZM31.429 32.16C30.2343 32.1707 29.2103 31.952 28.357 31.504C27.5037 31.056 26.8477 30.4107 26.389 29.568C25.9303 28.7253 25.701 27.712 25.701 26.528C25.701 25.344 25.941 24.2987 26.421 23.392C26.9117 22.4747 27.5997 21.76 28.485 21.248C29.3703 20.736 30.421 20.48 31.637 20.48C32.7143 20.48 33.6583 20.7147 34.469 21.184C35.2797 21.6533 35.909 22.3093 36.357 23.152C36.8157 23.984 37.045 24.9653 37.045 26.096C37.045 27.312 36.805 28.3733 36.325 29.28C35.845 30.1867 35.1783 30.8907 34.325 31.392C33.4823 31.8933 32.517 32.1493 31.429 32.16ZM31.333 29.84C32.2397 29.84 32.9757 29.5147 33.541 28.864C34.1063 28.2027 34.389 27.2907 34.389 26.128C34.389 25.1147 34.133 24.3093 33.621 23.712C33.109 23.104 32.421 22.8 31.557 22.8C30.9277 22.8 30.373 22.9547 29.893 23.264C29.413 23.5733 29.0343 24.0053 28.757 24.56C28.4903 25.104 28.357 25.744 28.357 26.48C28.357 27.5467 28.6183 28.3733 29.141 28.96C29.6743 29.5467 30.405 29.84 31.333 29.84ZM38.665 32L39.065 20.64H41.257L45.241 28.72L49.193 20.64H51.385L51.689 32H49.161L49.017 26.08L46.089 32H44.185L41.289 26.144L41.081 32H38.665ZM61.6136 22.896H56.3976V25.152H61.2776V27.408H56.3976V29.744H61.7736L61.6136 32H53.8376V20.64H61.6136V22.896Z" fill="white"/>
<path d="M28.59 38.93H18.81V43.16H27.96V47.39H18.81V51.77H28.89L28.59 56H14.01V34.7H28.59V38.93ZM31.383 56V34.7H36.273V51.71H45.483L45.183 56H31.383ZM61.2398 38.93H52.1498V43.46H60.6098V47.66H52.1498V56H47.3498V34.7H61.2398V38.93Z" fill="white"/>
</svg>
